<svg width="32" height="32" viewBox="0 0 32 32" fill="none" xmlns="http://www.w3.org/2000/svg">
<rect width="32" height="32" fill="url(#paint0_linear)"/>
<path d="M22.6318 10.3747C21.8123 9.54792 20.712 9.05924 19.5491 9.00563C18.3862 8.95202 17.2456 9.33739 16.3535 10.0853C16.2509 10.1628 16.1273 10.2074 15.9988 10.2134C15.8696 10.2097 15.745 10.1648 15.6431 10.0853C14.7514 9.33696 13.6109 8.95131 12.448 9.00493C11.2851 9.05854 10.185 9.54752 9.36594 10.3747C8.48506 11.2556 8 12.4271 8 13.6729C8 14.9187 8.48506 16.0902 9.33619 16.939L14.4407 22.9141C14.6331 23.1398 14.8721 23.321 15.1413 23.4453C15.4105 23.5695 15.7035 23.6339 16 23.6339C16.2965 23.6339 16.5895 23.5695 16.8587 23.4453C17.1279 23.321 17.3669 23.1398 17.5593 22.9141L22.6329 16.9711C23.0675 16.539 23.4121 16.025 23.6467 15.4589C23.8814 14.8928 24.0014 14.2857 24 13.6729C24.001 13.06 23.8806 12.4531 23.6457 11.887C23.4109 11.3209 23.0663 10.8069 22.6318 10.3747Z" fill="#B3B3B3"/>
<defs>
<linearGradient id="paint0_linear" x1="7.5" y1="9" x2="32" y2="32" gradientUnits="userSpaceOnUse">
<stop stop-color="#450AF5"/>
<stop offset="1" stop-color="#C4EFD9"/>
</linearGradient>
</defs>
</svg>
